<svg viewBox="0 0 16 16" fill="none" xmlns="http://www.w3.org/2000/svg">
  <path d="M8.081 15.507C3.91 14.915.92 12.564 1.424 7.972 1.964 3.466 5.044.075 9.508.477c3.825.363 5.888 4.197 5.55 7.967-.34 3.81-1.656 7.893-6.977 7.063Z" fill="#6C674B"/>
  <path d="M10.079 12.179a5.507 5.507 0 0 1-.071-.53 7.38 7.38 0 0 0-.053-.475c-.4.4-.836.717-1.306.952a3.306 3.306 0 0 1-1.466.335c-.894 0-1.56-.2-1.995-.6a1.985 1.985 0 0 1-.653-1.498c0-.541.165-1.005.494-1.393.342-.4.777-.723 1.307-.97a7.076 7.076 0 0 1 1.748-.564A8.365 8.365 0 0 1 9.92 7.26V6.167c0-.412-.036-.8-.106-1.164a1.69 1.69 0 0 0-.46-.9c-.235-.234-.611-.358-1.13-.37a2.67 2.67 0 0 0-1.058.195 1.418 1.418 0 0 0-.777.722.62.62 0 0 1 .176.335c.036.118.053.23.053.335 0 .141-.058.306-.176.494-.118.176-.324.259-.618.247-.247 0-.436-.082-.565-.247a1.014 1.014 0 0 1-.194-.617c0-.4.147-.758.441-1.076.306-.317.724-.57 1.254-.758.53-.188 1.13-.282 1.8-.282.989 0 1.719.265 2.19.794.47.517.7 1.34.688 2.468v1.322c0 .435-.006.876-.018 1.322v1.323c0 .188-.006.376-.017.564-.012.188-.03.4-.053.635l.618-.036.635-.035v.74H10.08Zm-.16-4.32a7.22 7.22 0 0 0-1.27.159 5.09 5.09 0 0 0-1.219.388 2.561 2.561 0 0 0-.9.705c-.224.282-.33.629-.318 1.04.024.435.165.764.424.987.27.212.588.318.953.318.483 0 .9-.088 1.254-.265a4.856 4.856 0 0 0 1.077-.776 4.687 4.687 0 0 1-.018-.423v-1.04c.012-.317.018-.682.018-1.093Z" fill="#fff"/>
</svg>
